<mxfile host="drawio-plugin" modified="2021-05-19T12:06:33.113Z" agent="5.0 (Windows NT 6.2; Win64; x64) AppleWebKit/537.36 (KHTML, like Gecko) Chrome/81.0.4044.113 Safari/537.36" etag="9CtUCjkgRnYYwK9bd9po" version="13.7.9" type="embed"><diagram id="uA7aJUNgXlmNfeOMPVpT" name="Page-1"><mxGraphModel dx="1344" dy="426" grid="1" gridSize="10" guides="1" tooltips="1" connect="1" arrows="1" fold="1" page="1" pageScale="0.9" pageWidth="1100" pageHeight="850" math="0" shadow="0"><root><mxCell id="0"/><mxCell id="1" parent="0"/><mxCell id="LqCWUR7vouX2W4A20DP9-17" value="TouchSensor" style="swimlane;fontStyle=1;align=center;verticalAlign=top;childLayout=stackLayout;horizontal=1;startSize=26;horizontalStack=0;resizeParent=1;resizeParentMax=0;resizeLast=0;collapsible=1;marginBottom=0;" parent="1" vertex="1"><mxGeometry x="70" y="85" width="220" height="210" as="geometry"/></mxCell><mxCell id="LqCWUR7vouX2W4A20DP9-18" value="- name: String&#10;- port: int" style="text;strokeColor=none;fillColor=none;align=left;verticalAlign=top;spacingLeft=4;spacingRight=4;overflow=hidden;rotatable=0;points=[[0,0.5],[1,0.5]];portConstraint=eastwest;" parent="LqCWUR7vouX2W4A20DP9-17" vertex="1"><mxGeometry y="26" width="220" height="44" as="geometry"/></mxCell><mxCell id="LqCWUR7vouX2W4A20DP9-19" value="" style="line;strokeWidth=1;fillColor=none;align=left;verticalAlign=middle;spacingTop=-1;spacingLeft=3;spacingRight=3;rotatable=0;labelPosition=right;points=[];portConstraint=eastwest;" parent="LqCWUR7vouX2W4A20DP9-17" vertex="1"><mxGeometry y="70" width="220" height="8" as="geometry"/></mxCell><mxCell id="LqCWUR7vouX2W4A20DP9-20" value="+ TouchSensor(name: String, port int)&#10;+ isPressed(): boolean&#10;+ waitForPressed(): void&#10;+ toString() : String&#10;+ getName(): String&#10;+ setName(name : String): void&#10;+ getPort(): int&#10;+ setPort(port : int): void" style="text;strokeColor=none;fillColor=none;align=left;verticalAlign=top;spacingLeft=4;spacingRight=4;overflow=hidden;rotatable=0;points=[[0,0.5],[1,0.5]];portConstraint=eastwest;" parent="LqCWUR7vouX2W4A20DP9-17" vertex="1"><mxGeometry y="78" width="220" height="132" as="geometry"/></mxCell><mxCell id="LqCWUR7vouX2W4A20DP9-21" value="Motor" style="swimlane;fontStyle=1;align=center;verticalAlign=top;childLayout=stackLayout;horizontal=1;startSize=26;horizontalStack=0;resizeParent=1;resizeParentMax=0;resizeLast=0;collapsible=1;marginBottom=0;" parent="1" vertex="1"><mxGeometry x="440" y="85" width="190" height="190" as="geometry"/></mxCell><mxCell id="LqCWUR7vouX2W4A20DP9-22" value="- name: String&#10;- port: String&#10;+ gateOpen: boolean" style="text;strokeColor=none;fillColor=none;align=left;verticalAlign=top;spacingLeft=4;spacingRight=4;overflow=hidden;rotatable=0;points=[[0,0.5],[1,0.5]];portConstraint=eastwest;" parent="LqCWUR7vouX2W4A20DP9-21" vertex="1"><mxGeometry y="26" width="190" height="54" as="geometry"/></mxCell><mxCell id="LqCWUR7vouX2W4A20DP9-23" value="" style="line;strokeWidth=1;fillColor=none;align=left;verticalAlign=middle;spacingTop=-1;spacingLeft=3;spacingRight=3;rotatable=0;labelPosition=right;points=[];portConstraint=eastwest;" parent="LqCWUR7vouX2W4A20DP9-21" vertex="1"><mxGeometry y="80" width="190" height="8" as="geometry"/></mxCell><mxCell id="LqCWUR7vouX2W4A20DP9-24" value="+ Motor(name: String, port String)&#10;+ toggleGate(): void&#10;+ getName(): String&#10;+ setName(name : String): void&#10;+ getPort(): int&#10;+ setPort(port : int): void" style="text;strokeColor=none;fillColor=none;align=left;verticalAlign=top;spacingLeft=4;spacingRight=4;overflow=hidden;rotatable=0;points=[[0,0.5],[1,0.5]];portConstraint=eastwest;" parent="LqCWUR7vouX2W4A20DP9-21" vertex="1"><mxGeometry y="88" width="190" height="102" as="geometry"/></mxCell><mxCell id="LqCWUR7vouX2W4A20DP9-25" value="DistanceSensor" style="swimlane;fontStyle=1;align=center;verticalAlign=top;childLayout=stackLayout;horizontal=1;startSize=26;horizontalStack=0;resizeParent=1;resizeParentMax=0;resizeLast=0;collapsible=1;marginBottom=0;" parent="1" vertex="1"><mxGeometry x="70" y="320" width="230" height="190" as="geometry"/></mxCell><mxCell id="LqCWUR7vouX2W4A20DP9-26" value="- name: String&#10;- port: int" style="text;strokeColor=none;fillColor=none;align=left;verticalAlign=top;spacingLeft=4;spacingRight=4;overflow=hidden;rotatable=0;points=[[0,0.5],[1,0.5]];portConstraint=eastwest;" parent="LqCWUR7vouX2W4A20DP9-25" vertex="1"><mxGeometry y="26" width="230" height="54" as="geometry"/></mxCell><mxCell id="LqCWUR7vouX2W4A20DP9-27" value="" style="line;strokeWidth=1;fillColor=none;align=left;verticalAlign=middle;spacingTop=-1;spacingLeft=3;spacingRight=3;rotatable=0;labelPosition=right;points=[];portConstraint=eastwest;" parent="LqCWUR7vouX2W4A20DP9-25" vertex="1"><mxGeometry y="80" width="230" height="8" as="geometry"/></mxCell><mxCell id="LqCWUR7vouX2W4A20DP9-28" value="+ DistanceSensor(name: String, port int)&#10;+ getDinstaz(): double&#10;+ getName(): String&#10;+ setName(name : String): void&#10;+ getPort(): int&#10;+ setPort(port : int): void" style="text;strokeColor=none;fillColor=none;align=left;verticalAlign=top;spacingLeft=4;spacingRight=4;overflow=hidden;rotatable=0;points=[[0,0.5],[1,0.5]];portConstraint=eastwest;" parent="LqCWUR7vouX2W4A20DP9-25" vertex="1"><mxGeometry y="88" width="230" height="102" as="geometry"/></mxCell><mxCell id="LqCWUR7vouX2W4A20DP9-29" value="ColorSensor" style="swimlane;fontStyle=1;align=center;verticalAlign=top;childLayout=stackLayout;horizontal=1;startSize=26;horizontalStack=0;resizeParent=1;resizeParentMax=0;resizeLast=0;collapsible=1;marginBottom=0;" parent="1" vertex="1"><mxGeometry x="440" y="310" width="220" height="190" as="geometry"/></mxCell><mxCell id="LqCWUR7vouX2W4A20DP9-30" value="- name: String&#10;- port: int&#10;- color: String" style="text;strokeColor=none;fillColor=none;align=left;verticalAlign=top;spacingLeft=4;spacingRight=4;overflow=hidden;rotatable=0;points=[[0,0.5],[1,0.5]];portConstraint=eastwest;" parent="LqCWUR7vouX2W4A20DP9-29" vertex="1"><mxGeometry y="26" width="220" height="54" as="geometry"/></mxCell><mxCell id="LqCWUR7vouX2W4A20DP9-31" value="" style="line;strokeWidth=1;fillColor=none;align=left;verticalAlign=middle;spacingTop=-1;spacingLeft=3;spacingRight=3;rotatable=0;labelPosition=right;points=[];portConstraint=eastwest;" parent="LqCWUR7vouX2W4A20DP9-29" vertex="1"><mxGeometry y="80" width="220" height="8" as="geometry"/></mxCell><mxCell id="LqCWUR7vouX2W4A20DP9-32" value="+ ColorSensor(name: String, port int)&#10;+ getColor(): String&#10;+ getName(): String&#10;+ setName(name : String): void&#10;+ getPort(): int&#10;+ setPort(port : int): void" style="text;strokeColor=none;fillColor=none;align=left;verticalAlign=top;spacingLeft=4;spacingRight=4;overflow=hidden;rotatable=0;points=[[0,0.5],[1,0.5]];portConstraint=eastwest;" parent="LqCWUR7vouX2W4A20DP9-29" vertex="1"><mxGeometry y="88" width="220" height="102" as="geometry"/></mxCell><mxCell id="LqCWUR7vouX2W4A20DP9-33" value="Access Control" style="text;html=1;align=center;verticalAlign=middle;resizable=0;points=[];autosize=1;strokeColor=#000000;fontSize=26;" parent="1" vertex="1"><mxGeometry width="190" height="40" as="geometry"/></mxCell></root></mxGraphModel></diagram></mxfile>